<svg width="64" height="64" viewBox="0 0 64 64" fill="none" xmlns="http://www.w3.org/2000/svg">
<rect width="64" height="64" rx="14" fill="#090F1D"/>
<g transform="translate(14, 6) scale(0.14)">
<path d="M252.571 242.911C250.777 220.577 245.364 199.845 237.433 178.964C214.94 119.773 172.537 56.3472 135.828 4.63703C133.738 1.69172 129.849 -0.0743809 126.904 0.0024056C124.518 0.0627379 120.169 1.69167 118.304 4.17626C93.9298 36.6734 71.6178 70.0591 51.1104 105.337C36.9158 129.761 24.8769 154.212 15.0372 180.604C6.66201 203.064 1.05107 225.524 0.107688 249.504C-1.46095 289.35 14.1542 326.712 43.898 352.908C83.7886 388.043 136.047 397.597 183.759 371.095C229.639 345.613 256.799 295.576 252.571 242.911ZM226.315 277.871C216.371 320.29 182.311 355.025 138.367 361.941C159.56 352.529 177.55 339.399 190.078 319.895C214.369 282.083 212.165 241.924 196.489 201.128C181.856 163.042 158.063 123.716 135.559 89.7329C133.343 86.3817 129.575 84.4511 125.928 84.5553C122.681 84.6485 118.737 86.6559 116.532 89.9578C92.6025 125.724 65.1459 171.039 52.0483 211.922C47.5673 225.903 45.1924 239.593 45.1704 254.275C45.1265 280.251 57.5605 304.307 80.0644 317.443C93.1949 325.105 108.931 327.387 123.608 322.983C147.121 315.924 163.246 294.632 164.678 270.253C166.405 240.81 152.595 209.734 136.195 186.073C134.309 183.347 130.327 181.268 127.699 180.999C124.167 180.637 119.922 182.255 117.668 185.244C102.541 205.297 87.0849 236.532 91.2971 262.036C92.2899 268.042 94.7526 273.73 98.8606 277.948C103.21 282.412 109.49 282.736 114.432 279.494C118.776 276.642 120.893 270.412 118.534 264.762C111.245 247.321 117.52 233.373 126.306 216.732C135.998 234.634 145.635 258.246 138.625 278.633C135.477 287.787 129.021 295.241 121.359 298.345C111.36 302.404 101.186 302.157 92.0925 296.903C80.3825 290.135 72.649 277.712 70.3399 264.312C68.1131 251.385 70.1919 239.11 73.2304 226.523C85.1323 188.48 104.28 154.798 125.862 120.14C146.962 154.963 172.51 196.91 181.636 236.741C189.386 270.549 178.647 305.591 152.403 328.265C120.103 356.16 71.4808 352.825 44.7152 317.158C29.8186 297.309 23.4508 273.499 24.6136 248.588C27.4656 187.438 76.3238 109.368 110.126 59.0732L126.136 35.2529L169.74 101.481C192.776 136.474 220.167 192.764 227.352 234.366C229.941 249.345 229.793 263.073 226.326 277.871H226.315Z" fill="#7CB5A2"/>
</g>
</svg>
