<svg width="1865" height="387" viewBox="0 0 1865 387" fill="none" xmlns="http://www.w3.org/2000/svg">
<path d="M252.571 242.911C250.777 220.577 245.364 199.845 237.433 178.964C214.94 119.773 172.537 56.3472 135.828 4.63703C133.738 1.69172 129.849 -0.0743809 126.904 0.0024056C124.518 0.0627379 120.169 1.69167 118.304 4.17626C93.9298 36.6734 71.6178 70.0591 51.1104 105.337C36.9158 129.761 24.8769 154.212 15.0372 180.604C6.66201 203.064 1.05107 225.524 0.107688 249.504C-1.46095 289.35 14.1542 326.712 43.898 352.908C83.7886 388.043 136.047 397.597 183.759 371.095C229.639 345.613 256.799 295.576 252.571 242.911ZM226.315 277.871C216.371 320.29 182.311 355.025 138.367 361.941C159.56 352.529 177.55 339.399 190.078 319.895C214.369 282.083 212.165 241.924 196.489 201.128C181.856 163.042 158.063 123.716 135.559 89.7329C133.343 86.3817 129.575 84.4511 125.928 84.5553C122.681 84.6485 118.737 86.6559 116.532 89.9578C92.6025 125.724 65.1459 171.039 52.0483 211.922C47.5673 225.903 45.1924 239.593 45.1704 254.275C45.1265 280.251 57.5605 304.307 80.0644 317.443C93.1949 325.105 108.931 327.387 123.608 322.983C147.121 315.924 163.246 294.632 164.678 270.253C166.405 240.81 152.595 209.734 136.195 186.073C134.309 183.347 130.327 181.268 127.699 180.999C124.167 180.637 119.922 182.255 117.668 185.244C102.541 205.297 87.0849 236.532 91.2971 262.036C92.2899 268.042 94.7526 273.73 98.8606 277.948C103.21 282.412 109.49 282.736 114.432 279.494C118.776 276.642 120.893 270.412 118.534 264.762C111.245 247.321 117.52 233.373 126.306 216.732C135.998 234.634 145.635 258.246 138.625 278.633C135.477 287.787 129.021 295.241 121.359 298.345C111.36 302.404 101.186 302.157 92.0925 296.903C80.3825 290.135 72.649 277.712 70.3399 264.312C68.1131 251.385 70.1919 239.11 73.2304 226.523C85.1323 188.48 104.28 154.798 125.862 120.14C146.962 154.963 172.51 196.91 181.636 236.741C189.386 270.549 178.647 305.591 152.403 328.265C120.103 356.16 71.4808 352.825 44.7152 317.158C29.8186 297.309 23.4508 273.499 24.6136 248.588C27.4656 187.438 76.3238 109.368 110.126 59.0732L126.136 35.2529L169.74 101.481C192.776 136.474 220.167 192.764 227.352 234.366C229.941 249.345 229.793 263.073 226.326 277.871H226.315Z" fill="white"/>
<path d="M1224.29 25.2988C1222.03 62.8694 1220.23 95.7394 1218.87 123.92C1217.58 152.095 1216.95 175.91 1216.95 195.326C1216.95 214.742 1217.58 238.678 1218.87 266.853C1220.23 295.028 1222.03 327.903 1224.29 365.474H1151.44C1153.66 329.198 1155.44 297.288 1156.73 269.743C1158 242.226 1158.66 219.048 1158.66 200.262H1008.02C1008.02 219.048 1008.65 242.226 1009.95 269.743C1011.21 297.288 1012.98 329.198 1015.24 365.474H942.391C944.617 327.903 946.395 295.033 947.689 266.853C949.044 238.678 949.735 214.835 949.735 195.326C949.735 175.817 949.044 152.095 947.689 123.92C946.395 95.7449 944.617 62.8694 942.391 25.2988H1015.24L1014.76 35.5334C1014.1 45.2579 1012.9 67.2956 1011.15 101.641C1009.37 135.932 1008.32 163.959 1008.02 185.689H1158.65C1158.33 163.953 1157.27 135.926 1155.52 101.641C1153.75 67.2901 1152.54 45.2579 1151.91 35.5334L1151.43 25.2988H1224.28H1224.29Z" fill="white"/>
<path d="M1463.28 331.392C1463.28 353.49 1470.87 364.509 1486.04 364.509C1489.65 364.509 1492.96 363.966 1496.03 362.825C1499.07 361.711 1501.09 360.988 1502.05 360.658V370.29C1485.92 376.46 1470.69 379.564 1456.42 379.564C1440.82 379.564 1428.6 376.071 1419.69 369.088C1410.78 362.106 1405.84 354.461 1404.88 346.091V345.608C1393.86 353.978 1380.68 361.805 1365.26 369.088C1349.91 376.372 1333.98 380.047 1317.46 380.047C1302.53 380.047 1288.23 375.835 1274.59 367.405C1261.02 358.975 1254.24 342.12 1254.24 316.83C1254.24 284.497 1265.86 262.251 1289.16 250.119C1312.52 237.926 1339.29 231.816 1369.48 231.816C1376.22 231.816 1386.73 232.48 1401.03 233.741C1401.03 221.79 1400.7 204.118 1400.07 180.759C1399.74 164.233 1398.92 151.947 1397.66 143.912C1396.36 135.817 1393.35 129.432 1388.62 124.765C1383.96 120.037 1376.4 117.662 1365.99 117.662C1354.67 117.662 1345.52 120.613 1338.53 126.454C1331.61 132.235 1326.43 139.096 1323 147.044C1319.63 154.991 1316.29 164.803 1313.01 176.426C1310.42 186.479 1307.95 193.856 1305.54 198.584C1303.13 203.252 1299.94 205.566 1296.03 205.566C1290.55 205.566 1284.65 200.871 1278.33 191.476C1271.98 182.086 1266.59 172.301 1262.2 162.094C1257.86 151.92 1255.21 145.173 1254.25 141.866C1292.12 119.231 1329.39 107.91 1365.99 107.91C1400.01 107.91 1424.76 116.669 1440.17 134.16C1455.58 151.679 1463.29 178.565 1463.29 214.841V331.403L1463.28 331.392ZM1356.36 355.711C1369.9 355.711 1385.92 349.267 1404.4 336.323C1403.74 322.051 1402.78 290.925 1401.51 243C1390.19 240.773 1383.21 239.478 1380.56 239.144C1378.64 238.842 1375.26 238.661 1370.45 238.661C1355.18 238.661 1341.7 242.813 1329.99 251.062C1318.34 259.251 1312.53 274.723 1312.53 297.425C1312.53 315.908 1316.74 330.24 1325.17 340.414C1333.6 350.621 1343.98 355.706 1356.36 355.706V355.711Z" fill="white"/>
<path d="M1571.07 380.045C1582.45 380.045 1592.87 377.819 1602.26 373.42C1611.65 369.087 1619.3 364.447 1625.25 359.45C1631.28 354.393 1634.29 351.563 1634.29 350.899L1629.47 341.147C1628.18 342.442 1625.41 344.883 1621.16 348.492C1616.98 352.046 1611.95 355.446 1606.11 358.726C1600.24 361.946 1594.91 363.542 1590.1 363.542C1582.93 363.542 1578.23 359.329 1576.01 350.899C1572.69 338.948 1571.07 303.303 1571.07 243.969C1571.07 189.873 1571.79 146.642 1573.24 114.282C1574.74 81.8615 1576.4 58.107 1578.17 42.9965C1579.92 27.9134 1580.82 22.0118 1580.82 25.2972H1503.03C1503.03 22.3464 1503.9 28.972 1505.68 45.1684C1507.52 61.3923 1509.17 84.6641 1510.62 115.011C1512.06 145.298 1512.78 183.406 1512.78 229.407V336.337C1512.78 343.171 1515.25 350.005 1520.25 356.806C1525.3 363.547 1532.35 369.087 1541.44 373.425C1550.5 377.819 1560.37 380.051 1571.06 380.051L1571.07 380.045Z" fill="white"/>
<path d="M703.911 19.5176L596.98 359.693H582.407L514.852 177.983L446.336 359.693H431.763L300.508 19.5176H368.541L466.8 267.335L507.623 158.479L456.083 19.5176H524.116L614.548 258.664L689.327 19.5176H703.9H703.911Z" fill="white"/>
<path d="M914.824 165.343C912.899 167.932 890.922 182.412 848.958 208.816C807.055 235.247 773.126 256.56 747.205 272.757C756.266 297.652 769.544 317.551 787.063 332.48C804.554 347.41 822.856 354.88 841.971 354.88C853.922 354.88 863.043 354.491 869.306 353.673C875.63 352.801 882.069 350.662 888.574 347.289C895.079 343.916 902.21 338.349 910.009 330.55L914.824 335.365C908.956 341.234 903.175 346.444 897.487 351.019C891.86 355.533 881.17 360.469 865.456 365.948C849.803 371.488 830.595 374.258 807.899 374.258C776.17 374.258 750.161 368.51 729.868 357.035C709.64 345.567 694.886 330.275 685.677 311.156C676.435 291.981 671.828 270.908 671.828 247.938C671.828 222.983 676.918 199.409 687.12 177.256C697.294 155.038 713.008 136.976 734.201 123.067C755.454 109.097 781.677 102.115 812.83 102.115C838.658 102.115 859.549 106.569 875.444 115.482C891.339 124.394 902.418 134.207 908.676 144.863C915 155.548 917.046 162.382 914.819 165.332L914.824 165.343ZM846.786 162.332C846.786 150.71 843.111 139.395 835.828 128.376C828.511 117.39 815.956 111.878 798.136 111.878C780.316 111.878 766.226 119.102 753.704 133.554C741.243 147.946 735.04 171.453 735.04 204.115C735.04 223.953 737.749 242.947 743.229 261.074C768.513 248.07 792.059 232.899 813.911 215.556C835.828 198.219 846.786 180.487 846.786 162.332Z" fill="white"/>
<path d="M1864.14 165.343C1862.21 167.932 1840.23 182.412 1798.27 208.816C1756.37 235.247 1722.44 256.56 1696.52 272.757C1705.58 297.652 1718.86 317.551 1736.38 332.48C1753.87 347.41 1772.17 354.88 1791.28 354.88C1803.23 354.88 1812.36 354.491 1818.62 353.673C1824.94 352.801 1831.38 350.662 1837.89 347.289C1844.39 343.916 1851.52 338.349 1859.32 330.55L1864.14 335.365C1858.27 341.234 1852.49 346.444 1846.8 351.019C1841.17 355.533 1830.48 360.469 1814.77 365.948C1799.12 371.488 1779.91 374.258 1757.21 374.258C1725.48 374.258 1699.47 368.51 1679.18 357.035C1658.95 345.567 1644.2 330.275 1634.99 311.156C1625.75 291.981 1621.14 270.908 1621.14 247.938C1621.14 222.983 1626.23 199.409 1636.43 177.256C1646.61 155.038 1662.32 136.976 1683.51 123.067C1704.77 109.097 1730.99 102.115 1762.14 102.115C1787.97 102.115 1808.86 106.569 1824.76 115.482C1840.65 124.394 1851.73 134.207 1857.99 144.863C1864.31 155.548 1866.36 162.382 1864.13 165.332L1864.14 165.343ZM1796.1 162.332C1796.1 150.71 1792.43 139.395 1785.15 128.376C1777.83 117.39 1765.27 111.878 1747.45 111.878C1729.63 111.878 1715.54 119.102 1703.02 133.554C1690.56 147.946 1684.36 171.453 1684.36 204.115C1684.36 223.953 1687.07 242.947 1692.55 261.074C1717.83 248.07 1741.38 232.899 1763.23 215.556C1785.15 198.219 1796.1 180.487 1796.1 162.332Z" fill="white"/>
</svg>
